<svg width="15" height="18" viewBox="0 0 15 18" fill="none" xmlns="http://www.w3.org/2000/svg">
<path fill-rule="evenodd" clip-rule="evenodd" d="M10.3333 1.66663C10.3333 1.11434 10.781 0.666626 11.3333 0.666626H13.4999C14.0522 0.666626 14.4999 1.11434 14.4999 1.66663V16.3333C14.4999 16.8856 14.0522 17.3333 13.4999 17.3333H11.3333C10.781 17.3333 10.3333 16.8856 10.3333 16.3333V1.66663ZM5.33325 8.33329C5.33325 7.78101 5.78097 7.33329 6.33325 7.33329H8.49992C9.0522 7.33329 9.49992 7.78101 9.49992 8.33329V16.3333C9.49992 16.8856 9.0522 17.3333 8.49992 17.3333H6.33325C5.78097 17.3333 5.33325 16.8856 5.33325 16.3333V8.33329ZM1.33325 12.3333C0.780967 12.3333 0.333252 12.781 0.333252 13.3333V16.3333C0.333252 16.8856 0.780967 17.3333 1.33325 17.3333H3.49992C4.0522 17.3333 4.49992 16.8856 4.49992 16.3333V13.3333C4.49992 12.781 4.0522 12.3333 3.49992 12.3333H1.33325Z" fill="currentColor"/>
</svg>
