<svg width="14" height="14" viewBox="0 0 14 14" fill="none" xmlns="http://www.w3.org/2000/svg">
<path d="M7.00016 0.333496C6.12468 0.333496 5.25778 0.505935 4.44894 0.840966C3.6401 1.176 2.90517 1.66706 2.28612 2.28612C1.03588 3.53636 0.333496 5.23205 0.333496 7.00016C0.333496 8.76827 1.03588 10.464 2.28612 11.7142C2.90517 12.3333 3.6401 12.8243 4.44894 13.1594C5.25778 13.4944 6.12468 13.6668 7.00016 13.6668C8.76827 13.6668 10.464 12.9645 11.7142 11.7142C12.9645 10.464 13.6668 8.76827 13.6668 7.00016C13.6668 6.12468 13.4944 5.25778 13.1594 4.44894C12.8243 3.6401 12.3333 2.90517 11.7142 2.28612C11.0952 1.66706 10.3602 1.176 9.55139 0.840966C8.74255 0.505935 7.87564 0.333496 7.00016 0.333496ZM9.80016 9.80016L6.3335 7.66683V3.66683H7.3335V7.1335L10.3335 8.9335L9.80016 9.80016Z" fill="currentColor"/>
</svg>
