<svg width="26" height="26" viewBox="0 0 26 26" fill="currentColor" xmlns="http://www.w3.org/2000/svg">
<g clip-path="url(#clip0)">
<path d="M10.8662 9.63155L10.5016 11.689C10.4887 11.7613 10.4971 11.8357 10.5256 11.9037C10.5542 11.9717 10.6019 12.0306 10.6632 12.0737C10.7245 12.1168 10.7971 12.1425 10.8728 12.1478C10.9484 12.1531 11.024 12.1377 11.0911 12.1036L13 11.1322L14.9089 12.1035C14.976 12.1377 15.0516 12.153 15.1272 12.1477C15.2028 12.1424 15.2754 12.1168 15.3368 12.0737C15.3981 12.0305 15.4458 11.9717 15.4743 11.9037C15.5029 11.8357 15.5113 11.7613 15.4985 11.689L15.1338 9.63155L16.6781 8.17452C16.7324 8.12329 16.7709 8.05837 16.789 7.9871C16.8072 7.91583 16.8044 7.84106 16.781 7.77124C16.7575 7.70143 16.7144 7.63936 16.6564 7.59207C16.5984 7.54477 16.5278 7.51414 16.4528 7.50364L14.3188 7.20351L13.3645 5.33164C13.327 5.27031 13.2737 5.21949 13.2098 5.18418C13.1459 5.14888 13.0736 5.13031 13.0001 5.13031C12.9265 5.13031 12.8542 5.14888 12.7903 5.18418C12.7264 5.21949 12.6731 5.27031 12.6356 5.33164L11.6813 7.20351L9.54733 7.50364C9.47228 7.51414 9.40176 7.54477 9.34375 7.59207C9.28575 7.63936 9.24258 7.70143 9.21913 7.77124C9.19568 7.84106 9.19288 7.91583 9.21106 7.9871C9.22924 8.05837 9.26766 8.12329 9.32199 8.17452L10.8662 9.63155ZM12.0094 7.95218C12.0746 7.94302 12.1365 7.91864 12.1899 7.88114C12.2432 7.84364 12.2863 7.79414 12.3154 7.73691L13 6.39424L13.6846 7.73699C13.7137 7.79421 13.7568 7.84371 13.8102 7.88122C13.8635 7.91872 13.9254 7.9431 13.9907 7.95226L15.5214 8.16748L14.4138 9.21258C14.3667 9.25714 14.3314 9.31209 14.3111 9.37271C14.2907 9.43334 14.2859 9.49785 14.2969 9.56069L14.5585 11.0365L13.189 10.3397C13.1307 10.3101 13.0659 10.2946 13 10.2946C12.9342 10.2946 12.8693 10.3101 12.811 10.3397L11.4417 11.0365L11.7033 9.56069C11.7144 9.49785 11.7095 9.43334 11.6892 9.37271C11.6688 9.31209 11.6336 9.25714 11.5865 9.21258L10.4786 8.1674L12.0094 7.95218Z" fill="white"/>
<path d="M15.4375 22.8085H10.5625C10.4548 22.8085 10.3514 22.85 10.2752 22.9237C10.1991 22.9975 10.1562 23.0975 10.1562 23.2018C10.1562 23.3061 10.1991 23.4061 10.2752 23.4799C10.3514 23.5536 10.4548 23.595 10.5625 23.595H15.4375C15.5452 23.595 15.6486 23.5536 15.7248 23.4799C15.8009 23.4061 15.8438 23.3061 15.8438 23.2018C15.8438 23.0975 15.8009 22.9975 15.7248 22.9237C15.6486 22.85 15.5452 22.8085 15.4375 22.8085Z" fill="white"/>
<path d="M23.5625 4.719H20.7188V3.146H21.9375C22.0452 3.146 22.1486 3.10457 22.2248 3.03082C22.3009 2.95707 22.3438 2.85705 22.3438 2.75275V0.39325C22.3438 0.288954 22.3009 0.188929 22.2248 0.11518C22.1486 0.0414316 22.0452 0 21.9375 0L4.0625 0C3.95476 0 3.85142 0.0414316 3.77524 0.11518C3.69905 0.188929 3.65625 0.288954 3.65625 0.39325V2.75275C3.65625 2.85705 3.69905 2.95707 3.77524 3.03082C3.85142 3.10457 3.95476 3.146 4.0625 3.146H5.28125V4.719H2.4375C2.32976 4.719 2.22642 4.76044 2.15024 4.83418C2.07405 4.90793 2.03125 5.00796 2.03125 5.11225V9.29612C2.03362 10.327 2.38361 11.3288 3.02801 12.1495C3.67242 12.9702 4.576 13.5648 5.60142 13.8429L7.60992 14.3831C8.34106 15.0745 9.20651 15.6188 10.1562 15.9844V19.2693C10.1556 19.7906 9.94141 20.2903 9.56061 20.6589C9.17981 21.0275 8.66353 21.2349 8.125 21.2355C7.47875 21.2362 6.85918 21.485 6.40221 21.9274C5.94524 22.3697 5.68821 22.9695 5.6875 23.595V24.7748C5.6875 24.8791 5.7303 24.9791 5.80649 25.0528C5.88267 25.1266 5.98601 25.168 6.09375 25.168H19.9062C20.014 25.168 20.1173 25.1266 20.1935 25.0528C20.2697 24.9791 20.3125 24.8791 20.3125 24.7748V23.595C20.3118 22.9695 20.0548 22.3697 19.5978 21.9274C19.1408 21.485 18.5212 21.2362 17.875 21.2355C17.3365 21.2349 16.8202 21.0275 16.4394 20.6589C16.0586 20.2903 15.8444 19.7906 15.8438 19.2693V15.9844C16.7935 15.6188 17.6589 15.0745 18.3901 14.3831L20.3986 13.8429C21.424 13.5648 22.3276 12.9702 22.972 12.1495C23.6164 11.3288 23.9664 10.327 23.9688 9.29612V5.11225C23.9688 5.00796 23.9259 4.90793 23.8498 4.83418C23.7736 4.76044 23.6702 4.719 23.5625 4.719ZM4.46875 0.786501H21.5312V2.3595H4.46875V0.786501ZM19.9062 3.146V9.04476C19.9062 10.8178 19.1786 12.5182 17.8835 13.7719C16.5883 15.0257 14.8317 15.73 13 15.73C11.1683 15.73 9.41172 15.0257 8.11654 13.7719C6.82137 12.5182 6.09375 10.8178 6.09375 9.04476V3.146H19.9062ZM5.8188 13.0852C4.96429 12.8534 4.21132 12.3579 3.67433 11.674C3.13734 10.9901 2.84571 10.1551 2.84375 9.29612V5.5055H5.28125V9.04476C5.28461 9.51589 5.33189 9.98576 5.4225 10.4487C5.62404 11.4765 6.04616 12.4519 6.66157 13.3119L5.8188 13.0852ZM19.5 23.595V24.3815H6.5V23.595C6.50048 23.178 6.67184 22.7782 6.97649 22.4833C7.28113 22.1884 7.69417 22.0225 8.125 22.022H17.875C18.3058 22.0225 18.7189 22.1884 19.0235 22.4833C19.3282 22.7782 19.4995 23.178 19.5 23.595ZM15.0312 16.2538V19.2693C15.031 19.6357 15.1066 19.9984 15.2535 20.3361C15.4004 20.6738 15.6157 20.9796 15.8866 21.2355H10.1134C10.3843 20.9796 10.5996 20.6738 10.7465 20.3361C10.8934 19.9984 10.969 19.6357 10.9688 19.2693V16.2538C12.2987 16.6041 13.7013 16.6041 15.0312 16.2538ZM23.1562 9.29612C23.1543 10.1551 22.8627 10.9901 22.3257 11.674C21.7887 12.3579 21.0357 12.8534 20.1812 13.0852L19.3384 13.3118C20.2335 12.0572 20.7148 10.5695 20.7188 9.04476V5.5055H23.1562V9.29612Z" fill="white"/>
</g>
<defs>
<clipPath id="clip0">
<rect width="26" height="25.168" fill="white"/>
</clipPath>
</defs>
</svg>
