<svg width="23" height="16" viewBox="0 0 23 16" fill="none" xmlns="http://www.w3.org/2000/svg">
<path d="M11.1704 5.00006C10.3748 5.00006 9.6117 5.31613 9.04909 5.87874C8.48648 6.44135 8.17041 7.20441 8.17041 8.00006C8.17041 8.79571 8.48648 9.55877 9.04909 10.1214C9.6117 10.684 10.3748 11.0001 11.1704 11.0001C11.9661 11.0001 12.7291 10.684 13.2917 10.1214C13.8543 9.55877 14.1704 8.79571 14.1704 8.00006C14.1704 7.20441 13.8543 6.44135 13.2917 5.87874C12.7291 5.31613 11.9661 5.00006 11.1704 5.00006ZM11.1704 13.0001C9.84433 13.0001 8.57256 12.4733 7.63488 11.5356C6.69719 10.5979 6.17041 9.32614 6.17041 8.00006C6.17041 6.67398 6.69719 5.40221 7.63488 4.46453C8.57256 3.52684 9.84433 3.00006 11.1704 3.00006C12.4965 3.00006 13.7683 3.52684 14.7059 4.46453C15.6436 5.40221 16.1704 6.67398 16.1704 8.00006C16.1704 9.32614 15.6436 10.5979 14.7059 11.5356C13.7683 12.4733 12.4965 13.0001 11.1704 13.0001ZM11.1704 0.500061C6.17041 0.500061 1.90041 3.61006 0.17041 8.00006C1.90041 12.3901 6.17041 15.5001 11.1704 15.5001C16.1704 15.5001 20.4404 12.3901 22.1704 8.00006C20.4404 3.61006 16.1704 0.500061 11.1704 0.500061Z" fill="currentColor"/>
</svg>
