<svg width="26" height="25" viewBox="0 0 26 25" fill="currentColor" xmlns="http://www.w3.org/2000/svg">
<path d="M22.75 11.8797C22.7537 13.2431 22.4197 14.5881 21.775 15.8052C21.0106 17.2635 19.8356 18.4901 18.3814 19.3477C16.9272 20.2052 15.2514 20.6597 13.5417 20.6603C12.1118 20.6639 10.7013 20.3453 9.425 19.7306L3.25 21.6933L5.30833 15.8052C4.66368 14.5881 4.32961 13.2431 4.33333 11.8797C4.33399 10.2493 4.81066 8.65137 5.70995 7.26475C6.60923 5.87813 7.89561 4.75764 9.425 4.02877C10.7013 3.41406 12.1118 3.0955 13.5417 3.09906H14.0833C16.3414 3.21785 18.4741 4.12666 20.0732 5.6515C21.6723 7.17633 22.6254 9.21002 22.75 11.3632V11.8797Z" stroke="white" stroke-width="2" stroke-linecap="round" stroke-linejoin="round"/>
</svg>
