<svg width="18" height="18" viewBox="0 0 18 18" fill="none" xmlns="http://www.w3.org/2000/svg">
<path d="M9.83342 14H10.6667C10.8878 14 11.0997 14.0878 11.256 14.244C11.4123 14.4003 11.5001 14.6123 11.5001 14.8333H17.3334V16.5H11.5001C11.5001 16.721 11.4123 16.9329 11.256 17.0892C11.0997 17.2455 10.8878 17.3333 10.6667 17.3333H7.33342C7.1124 17.3333 6.90044 17.2455 6.74416 17.0892C6.58788 16.9329 6.50008 16.721 6.50008 16.5H0.666748V14.8333H6.50008C6.50008 14.6123 6.58788 14.4003 6.74416 14.244C6.90044 14.0878 7.1124 14 7.33342 14H8.16675V12.3333H2.33341C2.1124 12.3333 1.90044 12.2455 1.74416 12.0892C1.58788 11.9329 1.50008 11.721 1.50008 11.5V8.16663C1.50008 7.94561 1.58788 7.73365 1.74416 7.57737C1.90044 7.42109 2.1124 7.33329 2.33341 7.33329H15.6667C15.8878 7.33329 16.0997 7.42109 16.256 7.57737C16.4123 7.73365 16.5001 7.94561 16.5001 8.16663V11.5C16.5001 11.721 16.4123 11.9329 16.256 12.0892C16.0997 12.2455 15.8878 12.3333 15.6667 12.3333H9.83342V14ZM2.33341 0.666626H15.6667C15.8878 0.666626 16.0997 0.754423 16.256 0.910704C16.4123 1.06698 16.5001 1.27895 16.5001 1.49996V4.83329C16.5001 5.05431 16.4123 5.26627 16.256 5.42255C16.0997 5.57883 15.8878 5.66663 15.6667 5.66663H2.33341C2.1124 5.66663 1.90044 5.57883 1.74416 5.42255C1.58788 5.26627 1.50008 5.05431 1.50008 4.83329V1.49996C1.50008 1.27895 1.58788 1.06698 1.74416 0.910704C1.90044 0.754423 2.1124 0.666626 2.33341 0.666626ZM6.50008 3.99996H7.33342V2.33329H6.50008V3.99996ZM6.50008 10.6666H7.33342V8.99996H6.50008V10.6666ZM3.16675 2.33329V3.99996H4.83342V2.33329H3.16675ZM3.16675 8.99996V10.6666H4.83342V8.99996H3.16675Z" fill="currentColor"/>
</svg>
