<svg width="25" height="15" viewBox="0 0 25 15" fill="none" xmlns="http://www.w3.org/2000/svg">
<path d="M12.1709 0.5C13.0992 0.5 13.9894 0.868749 14.6458 1.52513C15.3021 2.1815 15.6709 3.07174 15.6709 4C15.6709 4.92826 15.3021 5.8185 14.6458 6.47487C13.9894 7.13125 13.0992 7.5 12.1709 7.5C11.2426 7.5 10.3524 7.13125 9.69602 6.47487C9.03965 5.8185 8.6709 4.92826 8.6709 4C8.6709 3.07174 9.03965 2.1815 9.69602 1.52513C10.3524 0.868749 11.2426 0.5 12.1709 0.5ZM5.1709 3C5.7309 3 6.2509 3.15 6.7009 3.42C6.5509 4.85 6.9709 6.27 7.8309 7.38C7.3309 8.34 6.3309 9 5.1709 9C4.37525 9 3.61219 8.68393 3.04958 8.12132C2.48697 7.55871 2.1709 6.79565 2.1709 6C2.1709 5.20435 2.48697 4.44129 3.04958 3.87868C3.61219 3.31607 4.37525 3 5.1709 3ZM19.1709 3C19.9665 3 20.7296 3.31607 21.2922 3.87868C21.8548 4.44129 22.1709 5.20435 22.1709 6C22.1709 6.79565 21.8548 7.55871 21.2922 8.12132C20.7296 8.68393 19.9665 9 19.1709 9C18.0109 9 17.0109 8.34 16.5109 7.38C17.3709 6.27 17.7909 4.85 17.6409 3.42C18.0909 3.15 18.6109 3 19.1709 3ZM5.6709 13.25C5.6709 11.18 8.5809 9.5 12.1709 9.5C15.7609 9.5 18.6709 11.18 18.6709 13.25V15H5.6709V13.25ZM0.170898 15V13.5C0.170898 12.11 2.0609 10.94 4.6209 10.6C4.0309 11.28 3.6709 12.22 3.6709 13.25V15H0.170898ZM24.1709 15H20.6709V13.25C20.6709 12.22 20.3109 11.28 19.7209 10.6C22.2809 10.94 24.1709 12.11 24.1709 13.5V15Z" fill="currentColor"/>
</svg>
