<svg width="26" height="26" viewBox="0 0 26 26" fill="currentColor" xmlns="http://www.w3.org/2000/svg">
<path d="M6.80873 9.16273C6.88501 9.24906 6.97971 9.31837 7.08631 9.36589C7.1929 9.41341 7.30887 9.43802 7.42623 9.43801C7.54959 9.43259 7.67005 9.40002 7.77845 9.34278C7.88686 9.28554 7.98036 9.20514 8.05185 9.10768L10.3675 5.96168C10.4711 5.79235 10.5053 5.59157 10.4635 5.39898C10.4216 5.20639 10.3067 5.03599 10.1414 4.92142C9.97612 4.80684 9.77245 4.75642 9.57062 4.7801C9.36879 4.80378 9.18346 4.89985 9.05123 5.04934L7.32873 7.40884L7.11748 7.07851C7.04813 7.00001 6.96348 6.93551 6.86837 6.88868C6.77326 6.84185 6.66956 6.81361 6.56318 6.80558C6.4568 6.79754 6.34982 6.80987 6.24836 6.84186C6.1469 6.87384 6.05295 6.92486 5.97185 6.99199C5.89076 7.05913 5.82413 7.14107 5.77575 7.23313C5.72737 7.32519 5.6982 7.42558 5.6899 7.52856C5.6816 7.63153 5.69434 7.73509 5.72738 7.8333C5.76042 7.93151 5.81313 8.02246 5.88248 8.10096L6.80873 9.16273Z" fill="white"/>
<path d="M6.80873 13.8817C6.88501 13.9681 6.97971 14.0374 7.08631 14.0849C7.1929 14.1324 7.30887 14.157 7.42623 14.157C7.54959 14.1516 7.67005 14.119 7.77845 14.0618C7.88686 14.0045 7.98036 13.9241 8.05185 13.8267L10.3675 10.6807C10.4711 10.5113 10.5053 10.3106 10.4635 10.118C10.4216 9.92539 10.3067 9.75499 10.1414 9.64041C9.97612 9.52584 9.77245 9.47541 9.57062 9.49909C9.36879 9.52278 9.18346 9.61884 9.05123 9.76833L7.32873 12.1278L7.11748 11.7975C7.04813 11.719 6.96348 11.6545 6.86837 11.6077C6.77326 11.5608 6.66956 11.5326 6.56318 11.5246C6.4568 11.5165 6.34982 11.5289 6.24836 11.5609C6.1469 11.5928 6.05295 11.6439 5.97185 11.711C5.89076 11.7781 5.82413 11.8601 5.77575 11.9521C5.72737 12.0442 5.6982 12.1446 5.6899 12.2476C5.6816 12.3505 5.69434 12.4541 5.72738 12.5523C5.76042 12.6505 5.81313 12.7415 5.88248 12.82L6.80873 13.8817Z" fill="white"/>
<path d="M8.27938 15.4312C7.76675 15.4312 7.26564 15.5783 6.83941 15.854C6.41318 16.1297 6.08097 16.5215 5.8848 16.98C5.68862 17.4384 5.6373 17.9429 5.7373 18.4296C5.83731 18.9162 6.08416 19.3633 6.44664 19.7142C6.80912 20.0651 7.27095 20.304 7.77373 20.4008C8.2765 20.4976 8.79764 20.4479 9.27124 20.258C9.74485 20.0681 10.1496 19.7466 10.4344 19.334C10.7192 18.9214 10.8713 18.4363 10.8713 17.9401C10.8713 17.6106 10.8042 17.2844 10.674 16.98C10.5437 16.6756 10.3528 16.399 10.1121 16.166C9.87143 15.933 9.5857 15.7482 9.27124 15.6221C8.95678 15.496 8.61975 15.4312 8.27938 15.4312ZM8.27938 18.876C8.02294 18.876 7.77702 18.7774 7.59569 18.6019C7.41437 18.4264 7.3125 18.1883 7.3125 17.9401C7.3125 17.6919 7.41437 17.4538 7.59569 17.2783C7.77702 17.1028 8.02294 17.0042 8.27938 17.0042C8.53581 17.0042 8.78174 17.1028 8.96306 17.2783C9.14438 17.4538 9.24625 17.6919 9.24625 17.9401C9.24625 18.1883 9.14438 18.4264 8.96306 18.6019C8.78174 18.7774 8.53581 18.876 8.27938 18.876Z" fill="white"/>
<path d="M19.5 6.35492H13C12.7845 6.35492 12.5778 6.43778 12.4255 6.58528C12.2731 6.73278 12.1875 6.93283 12.1875 7.14142C12.1875 7.35001 12.2731 7.55006 12.4255 7.69756C12.5778 7.84506 12.7845 7.92792 13 7.92792H19.5C19.7155 7.92792 19.9222 7.84506 20.0745 7.69756C20.2269 7.55006 20.3125 7.35001 20.3125 7.14142C20.3125 6.93283 20.2269 6.73278 20.0745 6.58528C19.9222 6.43778 19.7155 6.35492 19.5 6.35492Z" fill="white"/>
<path d="M19.5 11.7975H13C12.7845 11.7975 12.5778 11.8804 12.4255 12.0279C12.2731 12.1754 12.1875 12.3754 12.1875 12.584C12.1875 12.7926 12.2731 12.9927 12.4255 13.1402C12.5778 13.2877 12.7845 13.3705 13 13.3705H19.5C19.7155 13.3705 19.9222 13.2877 20.0745 13.1402C20.2269 12.9927 20.3125 12.7926 20.3125 12.584C20.3125 12.3754 20.2269 12.1754 20.0745 12.0279C19.9222 11.8804 19.7155 11.7975 19.5 11.7975Z" fill="white"/>
<path d="M19.5 17.2401H13C12.7845 17.2401 12.5778 17.3229 12.4255 17.4704C12.2731 17.6179 12.1875 17.818 12.1875 18.0266C12.1875 18.2352 12.2731 18.4352 12.4255 18.5827C12.5778 18.7302 12.7845 18.8131 13 18.8131H19.5C19.7155 18.8131 19.9222 18.7302 20.0745 18.5827C20.2269 18.4352 20.3125 18.2352 20.3125 18.0266C20.3125 17.818 20.2269 17.6179 20.0745 17.4704C19.9222 17.3229 19.7155 17.2401 19.5 17.2401Z" fill="white"/>
<path d="M21.2469 1.573H4.75312C3.92415 1.57507 3.12975 1.89476 2.54358 2.46218C1.9574 3.0296 1.62714 3.79858 1.625 4.60103V20.567C1.62714 21.3694 1.9574 22.1384 2.54358 22.7058C3.12975 23.2732 3.92415 23.5929 4.75312 23.595H21.2469C22.0758 23.5929 22.8703 23.2732 23.4564 22.7058C24.0426 22.1384 24.3729 21.3694 24.375 20.567V4.60103C24.3729 3.79858 24.0426 3.0296 23.4564 2.46218C22.8703 1.89476 22.0758 1.57507 21.2469 1.573ZM22.75 20.567C22.75 20.7581 22.7111 20.9473 22.6356 21.1238C22.56 21.3003 22.4493 21.4607 22.3097 21.5958C22.1702 21.731 22.0045 21.8381 21.8221 21.9113C21.6397 21.9844 21.4443 22.022 21.2469 22.022H4.75312C4.55573 22.022 4.36027 21.9844 4.1779 21.9113C3.99554 21.8381 3.82983 21.731 3.69026 21.5958C3.55068 21.4607 3.43996 21.3003 3.36442 21.1238C3.28888 20.9473 3.25 20.7581 3.25 20.567V4.60103C3.25 4.21513 3.40836 3.84504 3.69026 3.57217C3.97215 3.2993 4.35447 3.146 4.75312 3.146H21.2469C21.4443 3.146 21.6397 3.18363 21.8221 3.25676C22.0045 3.32988 22.1702 3.43705 22.3097 3.57217C22.4493 3.70728 22.56 3.86768 22.6356 4.04421C22.7111 4.22074 22.75 4.40995 22.75 4.60103V20.567Z" fill="white"/>
</svg>
