<svg width="18" height="18" viewBox="0 0 18 18" fill="none" xmlns="http://www.w3.org/2000/svg">
<path d="M8.99987 11.9166C8.22632 11.9166 7.48445 11.6093 6.93747 11.0624C6.39049 10.5154 6.0832 9.77351 6.0832 8.99996C6.0832 8.22641 6.39049 7.48455 6.93747 6.93756C7.48445 6.39058 8.22632 6.08329 8.99987 6.08329C9.77341 6.08329 10.5153 6.39058 11.0623 6.93756C11.6092 7.48455 11.9165 8.22641 11.9165 8.99996C11.9165 9.77351 11.6092 10.5154 11.0623 11.0624C10.5153 11.6093 9.77341 11.9166 8.99987 11.9166ZM15.1915 9.80829C15.2249 9.54163 15.2499 9.27496 15.2499 8.99996C15.2499 8.72496 15.2249 8.44996 15.1915 8.16663L16.9499 6.80829C17.1082 6.68329 17.1499 6.45829 17.0499 6.27496L15.3832 3.39163C15.2832 3.20829 15.0582 3.13329 14.8749 3.20829L12.7999 4.04163C12.3665 3.71663 11.9165 3.43329 11.3915 3.22496L11.0832 1.01663C11.0499 0.816626 10.8749 0.666626 10.6665 0.666626H7.3332C7.12487 0.666626 6.94987 0.816626 6.91653 1.01663L6.6082 3.22496C6.0832 3.43329 5.6332 3.71663 5.19987 4.04163L3.12487 3.20829C2.94153 3.13329 2.71653 3.20829 2.61653 3.39163L0.949866 6.27496C0.841533 6.45829 0.891533 6.68329 1.04987 6.80829L2.8082 8.16663C2.77487 8.44996 2.74987 8.72496 2.74987 8.99996C2.74987 9.27496 2.77487 9.54163 2.8082 9.80829L1.04987 11.1916C0.891533 11.3166 0.841533 11.5416 0.949866 11.725L2.61653 14.6083C2.71653 14.7916 2.94153 14.8583 3.12487 14.7916L5.19987 13.95C5.6332 14.2833 6.0832 14.5666 6.6082 14.775L6.91653 16.9833C6.94987 17.1833 7.12487 17.3333 7.3332 17.3333H10.6665C10.8749 17.3333 11.0499 17.1833 11.0832 16.9833L11.3915 14.775C11.9165 14.5583 12.3665 14.2833 12.7999 13.95L14.8749 14.7916C15.0582 14.8583 15.2832 14.7916 15.3832 14.6083L17.0499 11.725C17.1499 11.5416 17.1082 11.3166 16.9499 11.1916L15.1915 9.80829Z" fill="currentColor"/>
</svg>
