<svg width="26" height="26" viewBox="0 0 26 26" fill="none" xmlns="http://www.w3.org/2000/svg">
<path d="M19.5 8.66666C19.5 6.94276 18.8152 5.28946 17.5962 4.07047C16.3772 2.85148 14.7239 2.16666 13 2.16666C11.2761 2.16666 9.62279 2.85148 8.40381 4.07047C7.18482 5.28946 6.5 6.94276 6.5 8.66666C6.5 16.25 3.25 18.4167 3.25 18.4167H22.75C22.75 18.4167 19.5 16.25 19.5 8.66666Z" stroke="white" stroke-width="2" stroke-linecap="round" stroke-linejoin="round"/>
<path d="M14.8741 22.75C14.6836 23.0783 14.4102 23.3509 14.0813 23.5403C13.7524 23.7298 13.3795 23.8295 12.9999 23.8295C12.6203 23.8295 12.2474 23.7298 11.9185 23.5403C11.5896 23.3509 11.3162 23.0783 11.1257 22.75" stroke="white" stroke-width="2" stroke-linecap="round" stroke-linejoin="round"/>
</svg>
